<mxfile host="app.diagrams.net" modified="2022-06-07T23:43:18.875Z" agent="5.0 (Windows NT 10.0; Win64; x64) AppleWebKit/537.36 (KHTML, like Gecko) Chrome/102.0.5005.63 Safari/537.36 Edg/102.0.1245.33" etag="v7cKloYtWUJrXGSM0C8t" version="19.0.1" type="github">
  <diagram id="mm0Va0jNasvGqplJFVPJ" name="Page-1">
    <mxGraphModel dx="2737" dy="741" grid="1" gridSize="10" guides="1" tooltips="1" connect="1" arrows="1" fold="1" page="1" pageScale="1" pageWidth="827" pageHeight="1169" math="0" shadow="0">
      <root>
        <mxCell id="0" />
        <mxCell id="1" parent="0" />
        <mxCell id="abvY6ELjyZ5EaEnxxAVF-40" style="edgeStyle=orthogonalEdgeStyle;rounded=0;orthogonalLoop=1;jettySize=auto;html=1;exitX=0;exitY=0.25;exitDx=0;exitDy=0;fontSize=23;" parent="1" source="abvY6ELjyZ5EaEnxxAVF-9" target="abvY6ELjyZ5EaEnxxAVF-41" edge="1">
          <mxGeometry relative="1" as="geometry">
            <mxPoint x="-240.00000000000045" y="194.53846153846143" as="targetPoint" />
          </mxGeometry>
        </mxCell>
        <mxCell id="abvY6ELjyZ5EaEnxxAVF-9" value="" style="rounded=1;whiteSpace=wrap;html=1;fillColor=none;shadow=0;sketch=0;glass=0;arcSize=3;" parent="1" vertex="1">
          <mxGeometry x="-180" y="75" width="530" height="480" as="geometry" />
        </mxCell>
        <mxCell id="Ww-bNy5FXlPVnw8g5APJ-25" value="Diagramme d&#39;états-transitons Login" style="shape=umlFrame;whiteSpace=wrap;html=1;width=120;height=30;boundedLbl=1;verticalAlign=middle;align=left;spacingLeft=5;fillColor=none;" parent="1" vertex="1">
          <mxGeometry x="-790" y="20" width="1180" height="597" as="geometry" />
        </mxCell>
        <mxCell id="abvY6ELjyZ5EaEnxxAVF-4" style="edgeStyle=orthogonalEdgeStyle;rounded=0;orthogonalLoop=1;jettySize=auto;html=1;entryX=-0.014;entryY=0.128;entryDx=0;entryDy=0;entryPerimeter=0;" parent="1" source="Ww-bNy5FXlPVnw8g5APJ-1" target="Ww-bNy5FXlPVnw8g5APJ-3" edge="1">
          <mxGeometry relative="1" as="geometry" />
        </mxCell>
        <mxCell id="Ww-bNy5FXlPVnw8g5APJ-1" value="" style="ellipse;html=1;shape=startState;fillColor=#000000;strokeColor=#ff0000;" parent="1" vertex="1">
          <mxGeometry x="-682" y="263" width="30" height="30" as="geometry" />
        </mxCell>
        <mxCell id="Ww-bNy5FXlPVnw8g5APJ-5" value="" style="edgeStyle=orthogonalEdgeStyle;rounded=0;orthogonalLoop=1;jettySize=auto;html=1;entryX=0;entryY=0.5;entryDx=0;entryDy=0;" parent="1" source="Ww-bNy5FXlPVnw8g5APJ-3" edge="1">
          <mxGeometry relative="1" as="geometry">
            <mxPoint x="-180.00000000000045" y="300" as="targetPoint" />
          </mxGeometry>
        </mxCell>
        <mxCell id="abvY6ELjyZ5EaEnxxAVF-26" style="edgeStyle=orthogonalEdgeStyle;rounded=0;orthogonalLoop=1;jettySize=auto;html=1;entryX=1;entryY=0.5;entryDx=0;entryDy=0;fontSize=23;" parent="1" source="Ww-bNy5FXlPVnw8g5APJ-3" target="abvY6ELjyZ5EaEnxxAVF-3" edge="1">
          <mxGeometry relative="1" as="geometry">
            <Array as="points">
              <mxPoint x="-530" y="315" />
              <mxPoint x="-530" y="315" />
            </Array>
          </mxGeometry>
        </mxCell>
        <mxCell id="Ww-bNy5FXlPVnw8g5APJ-3" value="Interface d&#39;accueil" style="rounded=1;whiteSpace=wrap;html=1;fillColor=none;" parent="1" vertex="1">
          <mxGeometry x="-510" y="270" width="120" height="60" as="geometry" />
        </mxCell>
        <mxCell id="abvY6ELjyZ5EaEnxxAVF-1" value="" style="endArrow=classic;html=1;rounded=0;exitX=0.75;exitY=1;exitDx=0;exitDy=0;entryX=0.172;entryY=1.005;entryDx=0;entryDy=0;entryPerimeter=0;" parent="1" source="Ww-bNy5FXlPVnw8g5APJ-3" target="Ww-bNy5FXlPVnw8g5APJ-3" edge="1">
          <mxGeometry width="50" height="50" relative="1" as="geometry">
            <mxPoint x="-230" y="390" as="sourcePoint" />
            <mxPoint x="-180" y="340" as="targetPoint" />
            <Array as="points">
              <mxPoint x="-420" y="360" />
              <mxPoint x="-490" y="360" />
            </Array>
          </mxGeometry>
        </mxCell>
        <mxCell id="abvY6ELjyZ5EaEnxxAVF-2" value="EntrerIdentifiant [identifiant non valide] / retour interface accueil" style="text;html=1;align=center;verticalAlign=middle;resizable=0;points=[];autosize=1;strokeColor=none;fillColor=none;" parent="1" vertex="1">
          <mxGeometry x="-655" y="370" width="350" height="20" as="geometry" />
        </mxCell>
        <mxCell id="abvY6ELjyZ5EaEnxxAVF-3" value="" style="ellipse;html=1;shape=endState;fillColor=#000000;strokeColor=#ff0000;" parent="1" vertex="1">
          <mxGeometry x="-680" y="300" width="30" height="30" as="geometry" />
        </mxCell>
        <mxCell id="abvY6ELjyZ5EaEnxxAVF-6" value="Quitter /" style="text;html=1;align=center;verticalAlign=middle;resizable=0;points=[];autosize=1;strokeColor=none;fillColor=none;" parent="1" vertex="1">
          <mxGeometry x="-630" y="293" width="60" height="20" as="geometry" />
        </mxCell>
        <mxCell id="abvY6ELjyZ5EaEnxxAVF-7" value="EntrerIdentifiant [identifiant valide ]" style="text;html=1;align=center;verticalAlign=middle;resizable=0;points=[];autosize=1;strokeColor=none;fillColor=none;" parent="1" vertex="1">
          <mxGeometry x="-390" y="273" width="200" height="20" as="geometry" />
        </mxCell>
        <mxCell id="abvY6ELjyZ5EaEnxxAVF-14" value="" style="edgeStyle=orthogonalEdgeStyle;rounded=0;orthogonalLoop=1;jettySize=auto;html=1;fontSize=23;startArrow=none;" parent="1" source="abvY6ELjyZ5EaEnxxAVF-25" target="abvY6ELjyZ5EaEnxxAVF-13" edge="1">
          <mxGeometry relative="1" as="geometry">
            <mxPoint x="-160.00000000000045" y="170" as="sourcePoint" />
          </mxGeometry>
        </mxCell>
        <mxCell id="abvY6ELjyZ5EaEnxxAVF-10" value="" style="endArrow=none;html=1;rounded=0;exitX=0.001;exitY=0.084;exitDx=0;exitDy=0;exitPerimeter=0;entryX=1;entryY=0.084;entryDx=0;entryDy=0;entryPerimeter=0;" parent="1" source="abvY6ELjyZ5EaEnxxAVF-9" target="abvY6ELjyZ5EaEnxxAVF-9" edge="1">
          <mxGeometry width="50" height="50" relative="1" as="geometry">
            <mxPoint x="-80" y="225" as="sourcePoint" />
            <mxPoint x="330" y="115" as="targetPoint" />
          </mxGeometry>
        </mxCell>
        <mxCell id="abvY6ELjyZ5EaEnxxAVF-11" value="&lt;font style=&quot;font-size: 23px;&quot;&gt;Contrôle Fonction&lt;/font&gt;" style="text;html=1;strokeColor=none;fillColor=none;align=center;verticalAlign=middle;whiteSpace=wrap;rounded=0;" parent="1" vertex="1">
          <mxGeometry x="20" y="80" width="200" height="30" as="geometry" />
        </mxCell>
        <mxCell id="abvY6ELjyZ5EaEnxxAVF-16" value="" style="edgeStyle=orthogonalEdgeStyle;rounded=0;orthogonalLoop=1;jettySize=auto;html=1;fontSize=23;" parent="1" source="abvY6ELjyZ5EaEnxxAVF-13" target="abvY6ELjyZ5EaEnxxAVF-15" edge="1">
          <mxGeometry relative="1" as="geometry" />
        </mxCell>
        <mxCell id="abvY6ELjyZ5EaEnxxAVF-20" value="" style="edgeStyle=orthogonalEdgeStyle;rounded=0;orthogonalLoop=1;jettySize=auto;html=1;fontSize=23;" parent="1" source="abvY6ELjyZ5EaEnxxAVF-13" target="abvY6ELjyZ5EaEnxxAVF-19" edge="1">
          <mxGeometry relative="1" as="geometry" />
        </mxCell>
        <mxCell id="abvY6ELjyZ5EaEnxxAVF-13" value="Fonction Eleve" style="rhombus;whiteSpace=wrap;html=1;fillColor=none;rounded=1;" parent="1" vertex="1">
          <mxGeometry x="-80" y="130" width="80" height="80" as="geometry" />
        </mxCell>
        <mxCell id="abvY6ELjyZ5EaEnxxAVF-18" value="" style="edgeStyle=orthogonalEdgeStyle;rounded=0;orthogonalLoop=1;jettySize=auto;html=1;fontSize=23;" parent="1" source="abvY6ELjyZ5EaEnxxAVF-15" target="abvY6ELjyZ5EaEnxxAVF-17" edge="1">
          <mxGeometry relative="1" as="geometry" />
        </mxCell>
        <mxCell id="abvY6ELjyZ5EaEnxxAVF-22" value="" style="edgeStyle=orthogonalEdgeStyle;rounded=0;orthogonalLoop=1;jettySize=auto;html=1;fontSize=23;" parent="1" source="abvY6ELjyZ5EaEnxxAVF-15" target="abvY6ELjyZ5EaEnxxAVF-21" edge="1">
          <mxGeometry relative="1" as="geometry" />
        </mxCell>
        <mxCell id="abvY6ELjyZ5EaEnxxAVF-15" value="Fonction Enseignant" style="rhombus;whiteSpace=wrap;html=1;fillColor=none;rounded=1;" parent="1" vertex="1">
          <mxGeometry x="-80" y="290" width="80" height="80" as="geometry" />
        </mxCell>
        <mxCell id="abvY6ELjyZ5EaEnxxAVF-24" value="" style="edgeStyle=orthogonalEdgeStyle;rounded=0;orthogonalLoop=1;jettySize=auto;html=1;fontSize=23;" parent="1" source="abvY6ELjyZ5EaEnxxAVF-17" target="abvY6ELjyZ5EaEnxxAVF-23" edge="1">
          <mxGeometry relative="1" as="geometry" />
        </mxCell>
        <mxCell id="abvY6ELjyZ5EaEnxxAVF-17" value="Fonction Direction" style="rhombus;whiteSpace=wrap;html=1;fillColor=none;rounded=1;" parent="1" vertex="1">
          <mxGeometry x="-80" y="450" width="80" height="80" as="geometry" />
        </mxCell>
        <mxCell id="abvY6ELjyZ5EaEnxxAVF-34" style="edgeStyle=orthogonalEdgeStyle;rounded=0;orthogonalLoop=1;jettySize=auto;html=1;fontSize=23;" parent="1" source="abvY6ELjyZ5EaEnxxAVF-19" edge="1">
          <mxGeometry relative="1" as="geometry">
            <mxPoint x="220" y="170" as="targetPoint" />
          </mxGeometry>
        </mxCell>
        <mxCell id="abvY6ELjyZ5EaEnxxAVF-19" value="Remplir questionnaires" style="whiteSpace=wrap;html=1;fillColor=none;rounded=1;" parent="1" vertex="1">
          <mxGeometry x="60" y="140" width="120" height="60" as="geometry" />
        </mxCell>
        <mxCell id="abvY6ELjyZ5EaEnxxAVF-35" style="edgeStyle=orthogonalEdgeStyle;rounded=0;orthogonalLoop=1;jettySize=auto;html=1;fontSize=23;" parent="1" source="abvY6ELjyZ5EaEnxxAVF-21" edge="1">
          <mxGeometry relative="1" as="geometry">
            <mxPoint x="230" y="330.0000000000002" as="targetPoint" />
          </mxGeometry>
        </mxCell>
        <mxCell id="abvY6ELjyZ5EaEnxxAVF-21" value="Accéder questionnaires" style="whiteSpace=wrap;html=1;fillColor=none;rounded=1;" parent="1" vertex="1">
          <mxGeometry x="60" y="300" width="120" height="60" as="geometry" />
        </mxCell>
        <mxCell id="abvY6ELjyZ5EaEnxxAVF-36" style="edgeStyle=orthogonalEdgeStyle;rounded=0;orthogonalLoop=1;jettySize=auto;html=1;fontSize=23;" parent="1" source="abvY6ELjyZ5EaEnxxAVF-23" edge="1">
          <mxGeometry relative="1" as="geometry">
            <mxPoint x="230" y="490.0000000000002" as="targetPoint" />
          </mxGeometry>
        </mxCell>
        <mxCell id="abvY6ELjyZ5EaEnxxAVF-23" value="Gestion Enseignants / Eleves" style="whiteSpace=wrap;html=1;fillColor=none;rounded=1;" parent="1" vertex="1">
          <mxGeometry x="60" y="460" width="120" height="60" as="geometry" />
        </mxCell>
        <mxCell id="abvY6ELjyZ5EaEnxxAVF-29" value="" style="ellipse;html=1;shape=endState;fillColor=#000000;strokeColor=#ff0000;rounded=1;shadow=0;glass=0;sketch=0;fontSize=23;" parent="1" vertex="1">
          <mxGeometry x="230" y="475" width="30" height="30" as="geometry" />
        </mxCell>
        <mxCell id="abvY6ELjyZ5EaEnxxAVF-37" value="" style="ellipse;html=1;shape=endState;fillColor=#000000;strokeColor=#ff0000;rounded=1;shadow=0;glass=0;sketch=0;fontSize=23;" parent="1" vertex="1">
          <mxGeometry x="230" y="315" width="30" height="30" as="geometry" />
        </mxCell>
        <mxCell id="abvY6ELjyZ5EaEnxxAVF-38" value="" style="ellipse;html=1;shape=endState;fillColor=#000000;strokeColor=#ff0000;rounded=1;shadow=0;glass=0;sketch=0;fontSize=23;" parent="1" vertex="1">
          <mxGeometry x="220" y="155" width="30" height="30" as="geometry" />
        </mxCell>
        <mxCell id="abvY6ELjyZ5EaEnxxAVF-25" value="" style="ellipse;html=1;shape=startState;fillColor=#000000;strokeColor=#ff0000;" parent="1" vertex="1">
          <mxGeometry x="-150" y="155" width="30" height="30" as="geometry" />
        </mxCell>
        <mxCell id="abvY6ELjyZ5EaEnxxAVF-42" style="edgeStyle=orthogonalEdgeStyle;rounded=0;orthogonalLoop=1;jettySize=auto;html=1;entryX=0.5;entryY=0;entryDx=0;entryDy=0;fontSize=12;exitX=0.5;exitY=1;exitDx=0;exitDy=0;" parent="1" source="abvY6ELjyZ5EaEnxxAVF-41" target="Ww-bNy5FXlPVnw8g5APJ-3" edge="1">
          <mxGeometry relative="1" as="geometry" />
        </mxCell>
        <mxCell id="abvY6ELjyZ5EaEnxxAVF-41" value="&lt;font style=&quot;font-size: 12px;&quot;&gt;Déconnexion&lt;/font&gt;" style="rounded=1;whiteSpace=wrap;html=1;shadow=0;glass=0;sketch=0;fontSize=12;fillColor=none;" parent="1" vertex="1">
          <mxGeometry x="-510.00000000000045" y="164.9984615384614" width="120" height="60" as="geometry" />
        </mxCell>
        <mxCell id="abvY6ELjyZ5EaEnxxAVF-43" value="Lancement de l&#39;application" style="text;html=1;align=center;verticalAlign=middle;resizable=0;points=[];autosize=1;strokeColor=none;fillColor=none;fontSize=12;" parent="1" vertex="1">
          <mxGeometry x="-660" y="243" width="160" height="20" as="geometry" />
        </mxCell>
        <mxCell id="abvY6ELjyZ5EaEnxxAVF-44" value="Déconnexion utilisateur" style="text;html=1;align=center;verticalAlign=middle;resizable=0;points=[];autosize=1;strokeColor=none;fillColor=none;fontSize=12;" parent="1" vertex="1">
          <mxGeometry x="-360" y="165" width="140" height="20" as="geometry" />
        </mxCell>
      </root>
    </mxGraphModel>
  </diagram>
</mxfile>
